<mxfile host="Electron" agent="Mozilla/5.0 (X11; Linux x86_64) AppleWebKit/537.36 (KHTML, like Gecko) draw.io/24.7.17 Chrome/128.0.6613.186 Electron/32.2.5 Safari/537.36" version="24.7.17">
  <diagram name="第 1 页" id="LurN0qglzNULwL_AAL9B">
    <mxGraphModel dx="954" dy="658" grid="1" gridSize="10" guides="1" tooltips="1" connect="1" arrows="1" fold="1" page="1" pageScale="1" pageWidth="827" pageHeight="1169" math="0" shadow="0">
      <root>
        <mxCell id="0" />
        <mxCell id="1" parent="0" />
        <mxCell id="X-Rw7wgn4qLm1PdxmsWh-3" value="" style="edgeStyle=orthogonalEdgeStyle;rounded=0;orthogonalLoop=1;jettySize=auto;html=1;" edge="1" parent="1" source="X-Rw7wgn4qLm1PdxmsWh-1" target="X-Rw7wgn4qLm1PdxmsWh-2">
          <mxGeometry relative="1" as="geometry" />
        </mxCell>
        <mxCell id="X-Rw7wgn4qLm1PdxmsWh-1" value="开始" style="ellipse;whiteSpace=wrap;html=1;" vertex="1" parent="1">
          <mxGeometry x="340" y="80" width="120" height="80" as="geometry" />
        </mxCell>
        <mxCell id="X-Rw7wgn4qLm1PdxmsWh-5" value="" style="edgeStyle=orthogonalEdgeStyle;rounded=0;orthogonalLoop=1;jettySize=auto;html=1;" edge="1" parent="1" source="X-Rw7wgn4qLm1PdxmsWh-2" target="X-Rw7wgn4qLm1PdxmsWh-4">
          <mxGeometry relative="1" as="geometry" />
        </mxCell>
        <mxCell id="X-Rw7wgn4qLm1PdxmsWh-2" value="获取具有栈溢出漏洞的程序" style="whiteSpace=wrap;html=1;" vertex="1" parent="1">
          <mxGeometry x="340" y="250" width="120" height="60" as="geometry" />
        </mxCell>
        <mxCell id="X-Rw7wgn4qLm1PdxmsWh-7" value="" style="edgeStyle=orthogonalEdgeStyle;rounded=0;orthogonalLoop=1;jettySize=auto;html=1;" edge="1" parent="1" source="X-Rw7wgn4qLm1PdxmsWh-4" target="X-Rw7wgn4qLm1PdxmsWh-6">
          <mxGeometry relative="1" as="geometry" />
        </mxCell>
        <mxCell id="X-Rw7wgn4qLm1PdxmsWh-4" value="在程序中查找适合执行 ROP 攻击的短指令序列地址" style="whiteSpace=wrap;html=1;" vertex="1" parent="1">
          <mxGeometry x="340" y="390" width="120" height="60" as="geometry" />
        </mxCell>
        <mxCell id="X-Rw7wgn4qLm1PdxmsWh-9" value="" style="edgeStyle=orthogonalEdgeStyle;rounded=0;orthogonalLoop=1;jettySize=auto;html=1;" edge="1" parent="1" source="X-Rw7wgn4qLm1PdxmsWh-6" target="X-Rw7wgn4qLm1PdxmsWh-8">
          <mxGeometry relative="1" as="geometry" />
        </mxCell>
        <mxCell id="X-Rw7wgn4qLm1PdxmsWh-6" value="利用这些短指令序列组合形成攻击载荷" style="whiteSpace=wrap;html=1;" vertex="1" parent="1">
          <mxGeometry x="340" y="530" width="120" height="60" as="geometry" />
        </mxCell>
        <mxCell id="X-Rw7wgn4qLm1PdxmsWh-11" value="" style="edgeStyle=orthogonalEdgeStyle;rounded=0;orthogonalLoop=1;jettySize=auto;html=1;" edge="1" parent="1" source="X-Rw7wgn4qLm1PdxmsWh-8">
          <mxGeometry relative="1" as="geometry">
            <mxPoint x="400" y="800" as="targetPoint" />
          </mxGeometry>
        </mxCell>
        <mxCell id="X-Rw7wgn4qLm1PdxmsWh-8" value="将攻击载荷输入目标程序" style="whiteSpace=wrap;html=1;" vertex="1" parent="1">
          <mxGeometry x="340" y="670" width="120" height="60" as="geometry" />
        </mxCell>
        <mxCell id="X-Rw7wgn4qLm1PdxmsWh-12" value="结束" style="ellipse;whiteSpace=wrap;html=1;" vertex="1" parent="1">
          <mxGeometry x="340" y="800" width="120" height="80" as="geometry" />
        </mxCell>
      </root>
    </mxGraphModel>
  </diagram>
</mxfile>
